<svg width="28" height="28" viewBox="0 0 28 28" fill="none" xmlns="http://www.w3.org/2000/svg">
<g clip-path="url(#clip0_101_4395)">
<path d="M17.3777 13.3797L6.83502 11.5193V25.2661C6.83502 25.8938 7.34388 26.4031 7.972 26.4031H26.1637C26.7913 26.4031 27.3006 25.8943 27.3006 25.2661V20.2016L17.3777 13.3797Z" fill="#185C37"/>
<path d="M17.3777 1.59687H7.972C7.3444 1.59687 6.83502 2.10572 6.83502 2.73385V7.79843L17.3777 14L22.959 15.8604L27.3001 14V7.79843L17.3777 1.59687Z" fill="#21A366"/>
<path d="M6.83502 7.79843H17.3777V14H6.83502V7.79843Z" fill="#107C41"/>
<path opacity="0.1" d="M14.3803 6.55833H6.83502V22.062H14.3803C15.0074 22.0599 15.5152 21.5521 15.5173 20.925V7.69479C15.5152 7.06771 15.0074 6.56042 14.3803 6.55833Z" fill="#222222"/>
<path opacity="0.2" d="M13.7605 7.17812H6.83502V22.6823H13.7605C14.3876 22.6802 14.8954 22.1724 14.8975 21.5453V8.3151C14.8949 7.68802 14.3871 7.18021 13.7605 7.17812Z" fill="#222222"/>
<path opacity="0.2" d="M13.7605 7.17812H6.83502V21.4417H13.7605C14.3876 21.4396 14.8954 20.9318 14.8975 20.3047V8.3151C14.8949 7.68802 14.3871 7.18021 13.7605 7.17812Z" fill="#222222"/>
<path opacity="0.2" d="M13.1402 7.17812H6.83502V21.4417H13.1402C13.7673 21.4396 14.2751 20.9318 14.2772 20.3047V8.3151C14.2746 7.68802 13.7673 7.18021 13.1402 7.17812Z" fill="#222222"/>
<path d="M1.77043 7.17812H13.1402C13.7678 7.17812 14.2772 7.68698 14.2772 8.3151V19.6849C14.2772 20.3125 13.7683 20.8219 13.1402 20.8219H1.77043C1.14231 20.8219 0.633453 20.313 0.633453 19.6849V8.3151C0.633453 7.68698 1.14231 7.17812 1.77043 7.17812Z" fill="url(#paint0_linear_101_4395)"/>
<path d="M4.1543 17.6948L6.54544 13.9896L4.3543 10.3047H6.1168L7.31263 12.6615C7.42305 12.8854 7.49857 13.0516 7.53971 13.1615H7.55534C7.63398 12.9828 7.7168 12.8094 7.80326 12.6411L9.08138 10.3062H10.6996L8.45273 13.9693L10.7564 17.6953H9.03451L7.65326 15.1089C7.58815 14.999 7.53294 14.8833 7.48815 14.7635H7.46784C7.42721 14.8807 7.37357 14.9932 7.30794 15.0984L5.88607 17.6958L4.1543 17.6948Z" fill="white"/>
<path d="M26.1631 1.59687H17.3777V7.79843H27.3001V2.73385C27.3001 2.10572 26.7913 1.59687 26.1631 1.59687Z" fill="#33C481"/>
<path d="M17.3777 14H27.3001V20.2016H17.3777V14Z" fill="#107C41"/>
</g>
<defs>
<linearGradient id="paint0_linear_101_4395" x1="3.00358" y1="6.29006" x2="11.9067" y2="21.7099" gradientUnits="userSpaceOnUse">
<stop stop-color="#18884F"/>
<stop offset="0.5" stop-color="#117E43"/>
<stop offset="1" stop-color="#0B6631"/>
</linearGradient>
<clipPath id="clip0_101_4395">
<rect width="26.6667" height="26.6667" fill="white" transform="translate(0.633453 0.666664)"/>
</clipPath>
</defs>
</svg>
