<svg width="20" height="30" viewBox="0 0 20 30" fill="none" xmlns="http://www.w3.org/2000/svg">
<g clip-path="url(#clip0_101_4370)">
<g clip-path="url(#clip1_101_4370)">
<path d="M5.23131 29.9992C7.86532 29.9992 10.0031 27.7592 10.0031 24.9992V19.9992H5.23131C2.59729 19.9992 0.459534 22.2392 0.459534 24.9992C0.459534 27.7592 2.59729 29.9992 5.23131 29.9992Z" fill="#0ACF83"/>
<path d="M0.459534 15C0.459534 12.24 2.59729 10 5.23131 10H10.0031V20H5.23131C2.59729 20 0.459534 17.76 0.459534 15Z" fill="#A259FF"/>
<path d="M0.461853 5.00064C0.461853 2.24064 2.59961 0.000640869 5.23362 0.000640869H10.0054V10.0006H5.23362C2.59961 10.0006 0.461853 7.76064 0.461853 5.00064Z" fill="#F24E1E"/>
<path d="M10.0021 0.000686646H14.7739C17.4079 0.000686646 19.5457 2.24069 19.5457 5.00069C19.5457 7.76068 17.4079 10.0007 14.7739 10.0007H10.0021V0.000686646Z" fill="#FF7262"/>
<path d="M19.5457 15C19.5457 17.76 17.4079 20 14.7739 20C12.1399 20 10.0021 17.76 10.0021 15C10.0021 12.24 12.1399 10 14.7739 10C17.4079 10 19.5457 12.24 19.5457 15Z" fill="#1ABCFE"/>
</g>
</g>
<defs>
<clipPath id="clip0_101_4370">
<rect width="19.0909" height="30" fill="white" transform="translate(0.454956 4.57764e-05)"/>
</clipPath>
<clipPath id="clip1_101_4370">
<rect width="19.0909" height="30" fill="white" transform="translate(0.454895 0.000488281)"/>
</clipPath>
</defs>
</svg>
